ffmpeg version 3.4.8-0ubuntu0.2 Copyright (c) 2000-2020 the FFmpeg developers
  built with gcc 7 (Ubuntu 7.5.0-3ubuntu1~18.04)
  configuration: --prefix=/usr --extra-version=0ubuntu0.2 --toolchain=hardened --libdir=/usr/lib/x86_64-linux-gnu --incdir=/usr/include/x86_64-linux-gnu --enable-gpl --disable-stripping --enable-avresample --enable-avisynth --enable-gnutls --enable-ladspa --enable-libass --enable-libbluray --enable-libbs2b --enable-libcaca --enable-libcdio --enable-libflite --enable-libfontconfig --enable-libfreetype --enable-libfribidi --enable-libgme --enable-libgsm --enable-libmp3lame --enable-libmysofa --enable-libopenjpeg --enable-libopenmpt --enable-libopus --enable-libpulse --enable-librubberband --enable-librsvg --enable-libshine --enable-libsnappy --enable-libsoxr --enable-libspeex --enable-libssh --enable-libtheora --enable-libtwolame --enable-libvorbis --enable-libvpx --enable-libwavpack --enable-libwebp --enable-libx265 --enable-libxml2 --enable-libxvid --enable-libzmq --enable-libzvbi --enable-omx --enable-openal --enable-opengl --enable-sdl2 --enable-libdc1394 --enable-libdrm --enable-libiec61883 --enable-chromaprint --enable-frei0r --enable-libopencv --enable-libx264 --enable-shared
  libavutil      55. 78.100 / 55. 78.100
  libavcodec     57.107.100 / 57.107.100
  libavformat    57. 83.100 / 57. 83.100
  libavdevice    57. 10.100 / 57. 10.100
  libavfilter     6.107.100 /  6.107.100
  libavresample   3.  7.  0 /  3.  7.  0
  libswscale      4.  8.100 /  4.  8.100
  libswresample   2.  9.100 /  2.  9.100
  libpostproc    54.  7.100 / 54.  7.100
[rawvideo @ 0x5565dbb78a20] Estimating duration from bitrate, this may be inaccurate
Input #0, rawvideo, from '../../SVC-Encoder-20220109T061506Z-001/SVC-Encoder/Dataset/RollerCoaster/6f_2x2/tile_yuv/f2_t0_480x480.yuv':
  Duration: 00:00:10.00, start: 0.000000, bitrate: 82944 kb/s
    Stream #0:0: Video: rawvideo (I420 / 0x30323449), yuv420p, 480x480, 82944 kb/s, 30 tbr, 30 tbn, 30 tbc
Stream mapping:
  Stream #0:0 -> #0:0 (rawvideo (native) -> h264 (libx264))
Press [q] to stop, [?] for help
[libx264 @ 0x5565dbb85c60] using cpu capabilities: MMX2 SSE2Fast LZCNT SSSE3 SSE4.2 AVX
[libx264 @ 0x5565dbb85c60] profile High, level 3.0
Output #0, rawvideo, to 'RollerCoaster_f2_t0_480x480_x264_QP_20.h264':
  Metadata:
    encoder         : Lavf57.83.100
    Stream #0:0: Video: h264 (libx264), yuv420p, 480x480, q=-1--1, 30 fps, 30 tbn, 30 tbc
    Metadata:
      encoder         : Lavc57.107.100 libx264
    Side data:
      cpb: bitrate max/min/avg: 0/0/0 buffer size: 0 vbv_delay: -1
frame=  300 fps=0.0 q=26.0 LPSNR=Y:inf U:inf V:inf *:inf size=      29kB time=00:00:09.93 bitrate=  23.7kbits/s speed=  22x    
video:29kB audio:0kB subtitle:0kB other streams:0kB global headers:0kB muxing overhead: 0.000000%
[libx264 @ 0x5565dbb85c60] frame I:2     Avg QP:19.10  size:  1885  PSNR Mean Y:55.55 U:57.30 V:59.72 Avg:56.30 Global:56.26
[libx264 @ 0x5565dbb85c60] frame P:76    Avg QP:19.61  size:   266  PSNR Mean Y:55.17 U:56.68 V:60.04 Avg:55.93 Global:55.91
[libx264 @ 0x5565dbb85c60] frame B:222   Avg QP:25.60  size:    24  PSNR Mean Y:55.19 U:56.57 V:59.96 Avg:55.92 Global:55.91
[libx264 @ 0x5565dbb85c60] consecutive B-frames:  1.3%  0.0%  0.0% 98.7%
[libx264 @ 0x5565dbb85c60] mb I  I16..4: 72.8% 26.9%  0.2%
[libx264 @ 0x5565dbb85c60] mb P  I16..4:  3.6%  1.4%  0.0%  P16..4:  7.9%  0.3%  0.1%  0.0%  0.0%    skip:86.8%
[libx264 @ 0x5565dbb85c60] mb B  I16..4:  0.0%  0.0%  0.0%  B16..8:  0.7%  0.0%  0.0%  direct: 0.0%  skip:99.2%  L0:38.3% L1:61.7% BI: 0.0%
[libx264 @ 0x5565dbb85c60] 8x8 transform intra:27.6% inter:99.7%
[libx264 @ 0x5565dbb85c60] coded y,uvDC,uvAC intra: 4.0% 14.7% 0.0% inter: 0.1% 0.5% 0.0%
[libx264 @ 0x5565dbb85c60] i16 v,h,dc,p: 51% 22% 15% 12%
[libx264 @ 0x5565dbb85c60] i8 v,h,dc,ddl,ddr,vr,hd,vl,hu: 12%  6% 65%  3%  5%  2%  4%  2%  2%
[libx264 @ 0x5565dbb85c60] i4 v,h,dc,ddl,ddr,vr,hd,vl,hu: 32% 10% 50%  1%  1%  0%  2%  2%  0%
[libx264 @ 0x5565dbb85c60] i8c dc,h,v,p: 81%  9%  9%  1%
[libx264 @ 0x5565dbb85c60] Weighted P-Frames: Y:0.0% UV:0.0%
[libx264 @ 0x5565dbb85c60] ref P L0: 89.8%  0.6%  6.8%  2.8%
[libx264 @ 0x5565dbb85c60] ref B L0: 98.3%  1.2%  0.4%
[libx264 @ 0x5565dbb85c60] ref B L1: 99.0%  1.0%
[libx264 @ 0x5565dbb85c60] PSNR Mean Y:55.189 U:56.603 V:59.977 Avg:55.926 Global:55.911 kb/s:23.50
